# xmcd CD database file
#
# Track frame offsets:
#	187
#	33967
#	46480
#	67325
#	83152
#	104787
#	118885
#	150130
#
# Disc length: 2195 seconds
#
# Revision: 0
# Processed by: cddbd v1.5.2PL0 Copyright (c) Steve Scherf et al.
# Submitted via: CDex 1.70beta3
#
DISCID=69089108
DTITLE=Johnny Hodges - Everybody Knows
DYEAR=1964
DGENRE=Jazz
TTITLE0=Everybody Knows
TTITLE1=The Jeep Is Jumpin'
TTITLE2=310 Blues
TTITLE3=Main Stem
TTITLE4=I Let A Song Go Out Of My Heart - Don't Get Around Much Anymore
TTITLE5=A Flower Is A Lovesome Thing
TTITLE6=Papa Knows
TTITLE7=Open Mike
EXTD=YEAR: 1964
EXTT0=
EXTT1=
EXTT2=
EXTT3=
EXTT4=
EXTT5=
EXTT6=
EXTT7=
PLAYORDER=
